<?xml version="1.0" standalone="no"?>
<!DOCTYPE svg PUBLIC "-//W3C//DTD SVG 20010904//EN"
 "http://www.w3.org/TR/2001/REC-SVG-20010904/DTD/svg10.dtd">
<svg version="1.0" xmlns="http://www.w3.org/2000/svg"
 width="259.000000pt" height="259.000000pt" viewBox="0 0 259.000000 259.000000"
 preserveAspectRatio="xMidYMid meet">
<metadata>
Created by potrace 1.11, written by Peter Selinger 2001-2013
</metadata>
<g transform="translate(0.000000,259.000000) scale(0.100000,-0.100000)"
fill="#000000" stroke="none">
<path d="M1262 2538 c-7 -7 -12 -22 -12 -35 0 -20 -5 -23 -39 -23 -31 0 -40 4
-44 21 -6 24 -27 17 -27 -9 0 -12 -9 -7 -29 18 l-29 35 -13 -27 c-6 -15 -17
-24 -22 -21 -22 13 -92 10 -109 -5 -10 -8 -24 -12 -32 -9 -9 4 -20 -1 -26 -11
-8 -15 -11 -15 -20 -2 -9 13 -12 13 -25 -4 -7 -10 -18 -15 -24 -12 -5 4 -12 2
-16 -4 -4 -6 -11 -8 -16 -4 -6 3 -13 -3 -16 -14 -3 -13 -13 -20 -27 -20 -36 2
-86 -25 -99 -54 -9 -20 -19 -28 -38 -28 -31 0 -54 -23 -45 -45 3 -10 -1 -15
-13 -15 -17 0 -51 -29 -51 -43 0 -3 15 -21 34 -39 l35 -33 4 -550 4 -550 26
-85 c62 -206 166 -371 293 -466 21 -16 41 -32 44 -35 9 -11 123 -66 170 -82
25 -8 66 -18 93 -22 44 -7 47 -9 47 -36 0 -28 -2 -29 -47 -29 -103 1 -363 74
-363 103 0 5 8 22 17 38 17 28 17 30 -2 48 -20 19 -105 51 -135 51 -9 0 -25 6
-35 14 -16 11 -17 17 -7 29 16 19 3 54 -32 87 l-27 24 -42 -22 c-23 -12 -56
-34 -72 -48 -17 -14 -42 -33 -58 -42 -38 -23 -42 -46 -17 -94 24 -47 48 -69
107 -100 35 -18 42 -25 37 -44 -8 -33 58 -89 181 -151 122 -62 189 -84 308
-103 74 -11 429 -15 492 -5 132 22 332 102 428 172 66 48 78 63 72 90 -4 17 3
25 38 42 23 11 57 34 75 50 28 26 32 36 32 79 l0 50 -67 50 c-100 73 -108 76
-142 56 -36 -21 -50 -50 -44 -91 5 -30 3 -32 -34 -42 -22 -6 -62 -14 -89 -18
-47 -6 -48 -6 -34 13 8 10 17 21 20 24 103 103 230 370 244 511 3 30 8 285 11
567 l7 512 -116 0 -116 0 0 95 0 95 26 0 c14 0 33 -9 42 -20 10 -11 29 -21 44
-22 20 -2 28 -9 32 -29 3 -17 13 -29 29 -33 14 -3 30 -18 37 -35 14 -34 41
-51 33 -20 -6 21 7 25 25 7 9 -9 12 -8 12 5 0 9 6 17 14 17 25 0 6 38 -25 49
-16 5 -29 16 -29 24 0 20 -33 47 -58 47 -12 0 -22 6 -22 13 0 22 -37 49 -58
43 -13 -5 -22 0 -29 17 -17 36 -51 41 -78 11 -36 -39 -52 -29 -47 29 2 18 -13
23 -23 7 -12 -20 -36 -9 -46 20 -6 17 -18 31 -27 31 -10 1 -26 2 -37 3 -11 0
-25 4 -32 9 -6 4 -15 2 -18 -3 -5 -8 -13 -6 -25 5 -17 16 -19 15 -30 -4 -12
-24 -30 -28 -30 -7 0 7 -6 19 -13 25 -11 8 -18 6 -33 -10 l-19 -21 -22 28
c-20 26 -25 27 -51 18 -15 -6 -37 -7 -47 -3 -30 11 -50 10 -63 -3z"/>
</g>
</svg>
